#tb 0: 1/90000
#media_type 0: video
#codec_id 0: rawvideo
#dimensions 0: 200x200
#sar 0: 2834/2834
#tb 1: 1/44100
#media_type 1: audio
#codec_id 1: pcm_s16le
#sample_rate 1: 44100
#channel_layout 1: 3
#channel_layout_name 1: stereo
0,          0,          0,        1,   120000, 0x748cc771
1,          0,          0,     4096,    16384, 0x00000000
1,       4096,       4096,     4096,    16384, 0x29cd639d
1,       8192,       8192,     4096,    16384, 0xd52066e5
1,      12288,      12288,     4096,    16384, 0x0c933408
1,      16384,      16384,     4096,    16384, 0xb3b97675
1,      20480,      20480,     4096,    16384, 0x1cb4a26b
1,      24576,      24576,     4096,    16384, 0x6bf693b9
1,      28672,      28672,     4096,    16384, 0x12896c95
1,      32768,      32768,     4096,    16384, 0x48b7167a
1,      36864,      36864,     4096,    16384, 0x5a9c06ad
1,      40960,      40960,     4096,    16384, 0x42fa8e65
1,      45056,      45056,     4096,    16384, 0x175e6a61
1,      49152,      49152,     4096,    16384, 0x3cd0e606
1,      53248,      53248,     4096,    16384, 0x5ceff67d
1,      57344,      57344,     4096,    16384, 0xa24ba733
1,      61440,      61440,     4096,    16384, 0xafe61a2d
1,      65536,      65536,     4096,    16384, 0xef8355f1
1,      69632,      69632,     4096,    16384, 0x8e53cb7c
1,      73728,      73728,     4096,    16384, 0x461bb940
1,      77824,      77824,     4096,    16384, 0x96bb6ebd
1,      81920,      81920,     4096,    16384, 0xb99977dc
1,      86016,      86016,     4096,    16384, 0xa6b6a178
1,      90112,      90112,     4096,    16384, 0x7bdc3e50
1,      94208,      94208,     4096,    16384, 0x44cda519
1,      98304,      98304,     4096,    16384, 0xbdfd2e72
1,     102400,     102400,     4096,    16384, 0x5c09dc3c
1,     106496,     106496,     4096,    16384, 0xe5aabb75
1,     110592,     110592,     4096,    16384, 0x5db83fb2
1,     114688,     114688,     4096,    16384, 0x69a6e3c0
1,     118784,     118784,     4096,    16384, 0x0c09a90d
1,     122880,     122880,     4096,    16384, 0x978d2b50
1,     126976,     126976,     4096,    16384, 0x9707fbaa
1,     131072,     131072,     4096,    16384, 0x8003f93b
1,     135168,     135168,     4096,    16384, 0xaa12ab0c
1,     139264,     139264,     4096,    16384, 0x49980501
1,     143360,     143360,     4096,    16384, 0xdcb891db
1,     147456,     147456,     4096,    16384, 0x52b76938
1,     151552,     151552,     4096,    16384, 0x7cb55457
1,     155648,     155648,     4096,    16384, 0x6b08b7d2
1,     159744,     159744,     4096,    16384, 0xb56bb312
1,     163840,     163840,     4096,    16384, 0xcbf9d3e0
1,     167936,     167936,     4096,    16384, 0xe8958c07
1,     172032,     172032,     4096,    16384, 0x054ac021
1,     176128,     176128,     4096,    16384, 0x36811603
1,     180224,     180224,     4096,    16384, 0x3354f6e1
1,     184320,     184320,     4096,    16384, 0xa6c11686
1,     188416,     188416,     4096,    16384, 0xed353877
1,     192512,     192512,     4096,    16384, 0xef21373e
1,     196608,     196608,     4096,    16384, 0x31c806d9
1,     200704,     200704,     4096,    16384, 0x3c1c79d4
1,     204800,     204800,     4096,    16384, 0x1b7b3d9a
1,     208896,     208896,     4096,    16384, 0x08977239
1,     212992,     212992,     4096,    16384, 0x07f9d169
1,     217088,     217088,     4096,    16384, 0xa66ae19a
1,     221184,     221184,     4096,    16384, 0x42f51169
1,     225280,     225280,     4096,    16384, 0x98ff59b6
1,     229376,     229376,     4096,    16384, 0x855216b9
1,     233472,     233472,     4096,    16384, 0x0986573d
1,     237568,     237568,     4096,    16384, 0x060aeffe
1,     241664,     241664,     4096,    16384, 0x391c19bc
1,     245760,     245760,     4096,    16384, 0x9939c472
1,     249856,     249856,     4096,    16384, 0x4e0d31c5
1,     253952,     253952,     4096,    16384, 0xed2678a6
1,     258048,     258048,     4096,    16384, 0xfd899fc3
1,     262144,     262144,     4096,    16384, 0x35cf5263
1,     266240,     266240,     4096,    16384, 0xa2e35dad
1,     270336,     270336,     4096,    16384, 0xf9ed08a0
1,     274432,     274432,     4096,    16384, 0x022d9356
1,     278528,     278528,     4096,    16384, 0x508042f7
1,     282624,     282624,     4096,    16384, 0xe2e7e70b
1,     286720,     286720,     4096,    16384, 0x30812bfd
1,     290816,     290816,     4096,    16384, 0x5590ea7d
1,     294912,     294912,     4096,    16384, 0xebaa4fc4
1,     299008,     299008,     4096,    16384, 0x731cee53
1,     303104,     303104,     4096,    16384, 0x1127b480
1,     307200,     307200,     4096,    16384, 0x0809f7c8
1,     311296,     311296,     4096,    16384, 0xc0d4256f
1,     315392,     315392,     4096,    16384, 0xe868795c
1,     319488,     319488,     4096,    16384, 0x801a77d1
1,     323584,     323584,     4096,    16384, 0x1d44bed5
1,     327680,     327680,     4096,    16384, 0x7619f16b
1,     331776,     331776,     4096,    16384, 0x301064b6
1,     335872,     335872,     4096,    16384, 0x42f3e0fb
1,     339968,     339968,     4096,    16384, 0xfe186dc6
1,     344064,     344064,     4096,    16384, 0x1a9bbbab
1,     348160,     348160,     4096,    16384, 0x3c4e00a8
1,     352256,     352256,     4096,    16384, 0x3101c84e
1,     356352,     356352,     4096,    16384, 0x11a6c764
1,     360448,     360448,     4096,    16384, 0xb75e82a1
1,     364544,     364544,     4096,    16384, 0x81e3b3dd
1,     368640,     368640,     4096,    16384, 0x2656fc8e
1,     372736,     372736,     4096,    16384, 0x6c655f40
1,     376832,     376832,     4096,    16384, 0xba0432f9
1,     380928,     380928,     4096,    16384, 0x7028ee57
1,     385024,     385024,     4096,    16384, 0x16baf6ed
1,     389120,     389120,     4096,    16384, 0x863bcff5
1,     393216,     393216,     4096,    16384, 0x4dbce87e
1,     397312,     397312,     4096,    16384, 0x825e268c
1,     401408,     401408,     4096,    16384, 0xfe269f0a
1,     405504,     405504,     4096,    16384, 0x47b9c0ef
1,     409600,     409600,     4096,    16384, 0xbbe55aac
1,     413696,     413696,     4096,    16384, 0xeb0674a7
1,     417792,     417792,     4096,    16384, 0x01afba1b
1,     421888,     421888,     4096,    16384, 0x5ec18306
1,     425984,     425984,     4096,    16384, 0x6d0b844f
1,     430080,     430080,     4096,    16384, 0x6cd1bea2
1,     434176,     434176,     4096,    16384, 0x97e47cbb
1,     438272,     438272,     4096,    16384, 0xbb6bf554
1,     442368,     442368,     4096,    16384, 0x33ea7961
1,     446464,     446464,     4096,    16384, 0x83ce2f2a
1,     450560,     450560,     4096,    16384, 0x3bed9e0d
1,     454656,     454656,     4096,    16384, 0xd3a9570a
1,     458752,     458752,     4096,    16384, 0x4d5e1aca
1,     462848,     462848,     4096,    16384, 0x874a9b11
1,     466944,     466944,     4096,    16384, 0xe51061d8
1,     471040,     471040,     4096,    16384, 0x3582fac4
1,     475136,     475136,     4096,    16384, 0x35df558e
1,     479232,     479232,     4096,    16384, 0xe2485fed
1,     483328,     483328,     4096,    16384, 0x31f9c6a7
1,     487424,     487424,     4096,    16384, 0x0a82b244
1,     491520,     491520,     4096,    16384, 0xfbb428f4
1,     495616,     495616,     4096,    16384, 0x57b90bb6
1,     499712,     499712,     4096,    16384, 0x5c6daa1a
1,     503808,     503808,     4096,    16384, 0xe02ac113
1,     507904,     507904,     4096,    16384, 0x47ed59b6
1,     512000,     512000,     4096,    16384, 0x220e4bd3
1,     516096,     516096,     4096,    16384, 0x65de48b1
1,     520192,     520192,     4085,    16340, 0x326fa751
